<svg id="e02e5266-430e-48af-8af7-6fddc84c0ba8" data-name="Layer 1" xmlns="http://www.w3.org/2000/svg" xmlns:xlink="http://www.w3.org/1999/xlink" viewBox="0 0 98.3 46.2">
  <defs>
    <style>
      .a7e16378-1755-4482-bc25-b7ac6d9d5b4f {
        fill: url(#b06a8af2-e8f4-4cd1-896e-b64118bdfbba);
      }

      .bc6562fe-7c3e-4e6c-9024-d235aaddfd1a {
        fill: none;
      }

      .a364b50f-701a-4dc1-bf44-80a5c5e7b020 {
        fill: url(#ad24f19f-db07-45c0-9a27-f617c1b1f09f);
      }
    </style>
    <linearGradient id="b06a8af2-e8f4-4cd1-896e-b64118bdfbba" x1="304.41" y1="773.68" x2="321.82" y2="773.68" gradientUnits="userSpaceOnUse">
      <stop offset="0" stop-color="#08b420"/>
      <stop offset="1" stop-color="#88e94e"/>
    </linearGradient>
    <linearGradient id="ad24f19f-db07-45c0-9a27-f617c1b1f09f" x1="323.64" y1="773.68" x2="341.46" y2="773.68" gradientUnits="userSpaceOnUse">
      <stop offset="0" stop-color="#54cae8"/>
      <stop offset="1" stop-color="#0458b8"/>
    </linearGradient>
  </defs>
  <g>
    <g>
      <path d="M317.5,807.8h-4a.9.9,0,0,1-.8-.7c-1-1.9-2-3.9-2.9-5.9-.3-.5-.5-.8-1-.7h-2.2v7.3h-3.8V785.4a89.7,89.7,0,0,1,9,.1c3,.3,5.1,4,4.9,7.8s-1,4.8-3,5.9l-.4.3C314.7,802.3,316,805,317.5,807.8Zm-10.8-12h3.5a2.5,2.5,0,0,0,2.5-2.5c.2-1.8-.6-3.3-2-3.5a26.7,26.7,0,0,0-4-.1Z" transform="translate(-265.7 -762)"/>
      <path d="M299.8,788l-2.8,3a10.5,10.5,0,0,0-2.6-1.3c-2.7-.6-5.1,1.5-5.8,4.9s.9,7.9,3.9,8.8a9.6,9.6,0,0,0,2.4,0c.6,0,.8-.4.8-1.2s0-4.4,0-6.6v-1h4v10a1.6,1.6,0,0,1-.5,1.4c-5.2,4.7-13.4,2-14.7-7.9-.7-5.9,2.5-11.7,7.1-13C294.7,784.3,297.4,785.2,299.8,788Z" transform="translate(-265.7 -762)"/>
      <path d="M364,807.8h-3.5c-.2,0-.5-.3-.7-.6l-1.2-3.7a.8.8,0,0,0-.8-.7h-5.3c-.5,0-.7.1-.9.7s-.7,2.5-1.1,3.8-.4.6-.6.6h-3.6l1.5-4.9,5.3-16.7c.2-.7.5-1.1,1.1-1H356c.7-.1,1,.3,1.3,1.1l6,19.4C363.5,806.3,363.7,807,364,807.8Zm-6.9-9.6c-.6-2-1.3-4-1.9-6.1-.7,2.1-1.3,4.1-2,6.1Z" transform="translate(-265.7 -762)"/>
      <path d="M265.7,807.8c.4-1.2.7-2.3,1.1-3.3l5.7-18.3c.2-.7.5-1,1.2-1s1.9-.3,2.5.2.7,1.9,1,2.9l6,18.9c.1.1.1.3.2.6h-3.7c-.2,0-.4-.3-.5-.6l-1.2-3.7c-.2-.6-.4-.7-.9-.7h-5.3c-.4,0-.6.1-.7.6l-1.2,3.7c-.2.6-.3.8-.8.8Zm10.8-9.6-1.9-6.1-2,6.1Z" transform="translate(-265.7 -762)"/>
      <path d="M341.4,800.5l2.9,2.7c-2,4-5.8,5.8-9.5,4.7s-6.3-5.5-6.7-9.9c-.5-6.7,2.5-10.6,5.4-12.2s7.5-1.2,10.7,3.4l-2.9,2.8c-3.6-3.2-6.1-3.2-8.2,0a8.8,8.8,0,0,0,.7,9.9C335.5,803.8,338.3,804.9,341.4,800.5Z" transform="translate(-265.7 -762)"/>
      <path d="M324.4,807.7h-3.7V785.3h3.7Z" transform="translate(-265.7 -762)"/>
    </g>
    <g>
      <path class="a7e16378-1755-4482-bc25-b7ac6d9d5b4f" d="M321.8,772.2a3.2,3.2,0,0,0-.3-1.4,12.5,12.5,0,0,0-4-5,14.7,14.7,0,0,0-8.7-3.7h-3.9c-.4-.1-.5.1-.5.5s0,3.6.1,5.4a11.5,11.5,0,0,0,.1,1.9c1.3,6.8,4.6,11.6,10.1,14.2a12.4,12.4,0,0,0,6,1.2,15.6,15.6,0,0,0-4.3-8.7l-5.7-6-.9.2a2,2,0,0,1-1.8-2.2,1.9,1.9,0,0,1,1.9-2.1,1.9,1.9,0,0,1,1.8,2.1v.2l6.1,6.3a17.6,17.6,0,0,1,3.8,6c0,.1.1.2.2.4Z" transform="translate(-265.7 -762)"/>
      <path class="bc6562fe-7c3e-4e6c-9024-d235aaddfd1a" d="M335.8,768h-.5a15.1,15.1,0,0,1-5.4,5.8l-1.2.9c-3.2,2.3-3.2,4.4-2.9,8,5.3.9,12.7-5.9,13.2-12.2l-.4.4-3,3.9a17.8,17.8,0,0,1-5,4.5,1.9,1.9,0,1,1-3.8-.1,2.1,2.1,0,0,1,2-2.2h.6c2.6-1.5,4.5-3.8,6.4-6.4s1.9-2.9,3.3-3.9.1-1.2.2-1.9h-.2a6.1,6.1,0,0,0-1.9.1" transform="translate(-265.7 -762)"/>
      <path class="a364b50f-701a-4dc1-bf44-80a5c5e7b020" d="M341.4,762.4c0-.1-.2-.4-.3-.4a58.8,58.8,0,0,0-6,.3c-4.5.7-8.1,3.2-11.2,7a.8.8,0,0,0-.2.5v2.7c3.3-3,6.2-6.6,10.6-7.4l2.9-.5a6.1,6.1,0,0,1,1.9-.1h.2c-.1.7-.1,1.3-.2,1.9a16,16,0,0,0-3.3,4,24.3,24.3,0,0,1-6.4,6.4l-.6-.2a2.1,2.1,0,0,0-2,2.2,2.1,2.1,0,0,0,1.7,2.2,2.2,2.2,0,0,0,2.1-2.1,17.8,17.8,0,0,0,5-4.5l3-3.9.4-.4c-.5,6.3-7.9,13.1-13.2,12.2-.3-3.5-.3-5.7,2.9-8l1.2-.9a13.3,13.3,0,0,0,3.8-3.3h.3a2,2,0,0,0,2-2.2,1.8,1.8,0,0,0-1.8-2.1,2.1,2.1,0,0,0-2,2.2v.3a15.3,15.3,0,0,1-1.8,1.8c-1.1.9-2.4,1.7-3.6,2.6a7.5,7.5,0,0,0-2.9,4.2,7.8,7.8,0,0,0-.2,1.6c-.1,2.2-.1,4.4-.1,6.8a40.1,40.1,0,0,0,5.1-.5c6.1-1.6,10.1-5.9,12.1-12.8C341.7,768.9,341.4,765.6,341.4,762.4Z" transform="translate(-265.7 -762)"/>
    </g>
  </g>
</svg>
